<svg viewBox="0 0 575 575" class="roots-wrapper"><g transform="rotate(0 0 0)"><svg xmlns="http://www.w3.org/2000/svg" xmlns:xlink="http://www.w3.org/1999/xlink" viewBoxSize="575" data-root-id="6409239538451" id="Layer_1" dataName="Layer 1" viewBox="191.67263793945312 173.7487335205078 782.34326171875 720.1613159179688" height="211.71875" width="230" y="154.111" x="172.5" preserveAspectRatio="xMinYMin" zoom="1" editorType="buyer" data-layer-role="icon" style="position: absolute;height: 211.719px;width: 230px;top: 10px;left: 10px;"><linearGradient id="linear-gradient" x1="559.19" y1="92.84" x2="583.49" y2="851.99" gradientUnits="userSpaceOnUse" name="Layer %{number}" zoom="1" data-layer-id="9076719638452"><stop offset="0.13" stop-color="#06eca3"/><stop offset="0.95" stop-color="#2aa9ff"/></linearGradient><linearGradient id="linear-gradient-2" x1="580.36" y1="552.23" x2="585.97" y2="716.77" xlink:href="#linear-gradient" name="Layer %{number}" zoom="1" data-layer-id="3454085738452"/><path class="cls-1" d="M253.93,893.91h0a62.18,62.18,0,0,0,54.45-32.15L528,463.45c23.63-42.85,85.2-42.88,108.87-.06L857.08,861.81a62.15,62.15,0,0,0,54.41,32.1h.26c47.35,0,77.32-50.81,54.42-92.25l-329.3-595.8C613.2,163,551.63,163.07,528,205.92L199.49,801.72C176.64,843.15,206.62,893.91,253.93,893.91Z" name="Layer %{number}" zoom="1" data-layer-id="6259023838452" style="fill: url(&quot;#linear-gradient&quot;);"/><circle class="cls-2" cx="582.84" cy="624.98" r="61.7" name="Layer %{number}" zoom="1" data-layer-id="1887276738452" style="fill: url(&quot;#linear-gradient-2&quot;);"/></svg></g><g transform="rotate(0 0 0)"><svg xmlns="http://www.w3.org/2000/svg" viewBoxSize="575" data-root-id="2169604638452" y="442.8293762207031" viewBox="0 0 0 0" x="287.50025939941406" height="0" width="0" fontUrl="http://fonts.gstatic.com/s/lato/v24/S6u_w4BMUTPHjxsI9w2PHA3s5dwt7w.ttf" zoom="1" editorType="buyer" data-layer-role="slogan" style="position: absolute; top: 442.829px; width: 0px; height: 0px; left: 287.5px;"><g data-horizontal-grow="center" zoom="1" root="[object Object]" style="fill: rgb(0, 0, 0);"><path d="" transform="translate(0, 0)"/></g></svg></g><g transform="rotate(0 0 0)"><svg xmlns="http://www.w3.org/2000/svg" viewBoxSize="575" data-root-id="9475243538452" y="536.94" viewBox="0 0 0 0" x="97.90999603271484" height="0" width="0" fontUrl="http://fonts.gstatic.com/s/roboto/v30/KFOmCnqEu92Fr1Me5WZLCzYlKw.ttf" zoom="1" editorType="buyer" data-layer-role="brandName" style="position: absolute; top: 536.94px; width: 0px; height: 0px; left: 97.91px;"><g data-horizontal-grow="center" zoom="1" root="[object Object]" style="fill: rgb(0, 0, 0);"><path d="" transform="translate(0, 0)"/></g></svg></g></svg>